<svg width="312" height="312" viewBox="0 0 312 312" fill="none" xmlns="http://www.w3.org/2000/svg">
<path d="M155.96 311.701C242.095 311.701 311.92 241.924 311.92 155.85C311.92 69.7766 242.095 0 155.96 0C69.8257 0 0 69.7766 0 155.85C0 241.924 69.8257 311.701 155.96 311.701Z" fill="#383A59"/>
<path d="M87.9951 296.164C102.231 299.744 117.134 301.646 132.482 301.646C222.813 301.646 297.745 235.766 311.792 149.466C310.249 111.2 294.899 76.4874 270.586 50.1672C276.357 66.4464 279.499 83.969 279.499 102.225C279.499 188.299 209.672 258.075 123.538 258.075C78.2149 258.075 37.4073 238.755 8.91199 207.908C22.6554 246.674 51.3146 278.389 87.9951 296.164Z" fill="#282A36"/>
<path d="M87.9951 296.164C102.231 299.744 117.134 301.646 132.482 301.646C222.813 301.646 297.745 235.766 311.792 149.466C310.249 111.2 294.899 76.4874 270.586 50.1672C276.357 66.4464 279.499 83.969 279.499 102.225C279.499 188.299 209.672 258.075 123.538 258.075C78.2149 258.075 37.4073 238.755 8.91199 207.908C22.6554 246.674 51.3146 278.389 87.9951 296.164Z" fill="#282A36"/>
<path d="M87.9951 296.164C102.231 299.744 117.134 301.646 132.482 301.646C222.813 301.646 297.745 235.766 311.792 149.466C310.249 111.2 294.899 76.4874 270.586 50.1672C276.357 66.4464 279.499 83.969 279.499 102.225C279.499 188.299 209.672 258.075 123.538 258.075C78.2149 258.075 37.4073 238.755 8.91199 207.908C22.6554 246.674 51.3146 278.389 87.9951 296.164Z" fill="#282A36"/>
<path d="M87.9951 296.164C102.231 299.744 117.134 301.646 132.482 301.646C222.813 301.646 297.745 235.766 311.792 149.466C310.249 111.2 294.899 76.4874 270.586 50.1672C276.357 66.4464 279.499 83.969 279.499 102.225C279.499 188.299 209.672 258.075 123.538 258.075C78.2149 258.075 37.4073 238.755 8.91199 207.908C22.6554 246.674 51.3146 278.389 87.9951 296.164Z" fill="#282A36"/>
<path d="M136.783 310.534C123.674 306.13 110.863 300.15 98.6071 292.535C21.8978 244.868 -6.92338 149.383 26.7526 68.6832C48.2836 37.0019 79.662 15.6233 114.218 6.10156C100.713 16.8806 88.787 30.1034 79.1401 45.6063C33.6562 118.701 56.0809 214.802 129.227 260.253C167.511 284.043 212.104 289.243 252.434 278.314C225.89 299.224 192.383 311.701 155.96 311.701C149.467 311.701 143.067 311.304 136.783 310.534Z" fill="#282A36" fill-opacity="0.4"/>
<path d="M159.314 211.151C168.267 211.151 175.525 203.898 175.525 194.951C175.525 186.005 168.267 178.752 159.314 178.752C150.361 178.752 143.103 186.005 143.103 194.951C143.103 203.898 150.361 211.151 159.314 211.151Z" fill="#282A36" fill-opacity="0.82"/>
<path d="M159.314 211.151C168.267 211.151 175.525 203.898 175.525 194.951C175.525 186.005 168.267 178.752 159.314 178.752C150.361 178.752 143.103 186.005 143.103 194.951C143.103 203.898 150.361 211.151 159.314 211.151Z" fill="#282A36" fill-opacity="0.82"/>
<path d="M159.314 211.151C168.267 211.151 175.525 203.898 175.525 194.951C175.525 186.005 168.267 178.752 159.314 178.752C150.361 178.752 143.103 186.005 143.103 194.951C143.103 203.898 150.361 211.151 159.314 211.151Z" fill="#282A36" fill-opacity="0.82"/>
<path d="M206.27 102.782C227.572 102.782 244.841 85.525 244.841 64.238C244.841 42.9509 227.572 25.6943 206.27 25.6943C184.968 25.6943 167.699 42.9509 167.699 64.238C167.699 85.525 184.968 102.782 206.27 102.782Z" fill="#282A36" fill-opacity="0.82"/>
<path d="M206.27 102.782C227.572 102.782 244.841 85.525 244.841 64.238C244.841 42.9509 227.572 25.6943 206.27 25.6943C184.968 25.6943 167.699 42.9509 167.699 64.238C167.699 85.525 184.968 102.782 206.27 102.782Z" fill="#282A36" fill-opacity="0.82"/>
<path d="M206.27 102.782C227.572 102.782 244.841 85.525 244.841 64.238C244.841 42.9509 227.572 25.6943 206.27 25.6943C184.968 25.6943 167.699 42.9509 167.699 64.238C167.699 85.525 184.968 102.782 206.27 102.782Z" fill="#282A36" fill-opacity="0.82"/>
<path d="M59.8127 158.642C73.7053 158.642 84.9676 147.388 84.9676 133.505C84.9676 119.622 73.7053 108.368 59.8127 108.368C45.9201 108.368 34.6578 119.622 34.6578 133.505C34.6578 147.388 45.9201 158.642 59.8127 158.642Z" fill="#282A36" fill-opacity="0.82"/>
<path d="M59.8127 158.642C73.7053 158.642 84.9676 147.388 84.9676 133.505C84.9676 119.622 73.7053 108.368 59.8127 108.368C45.9201 108.368 34.6578 119.622 34.6578 133.505C34.6578 147.388 45.9201 158.642 59.8127 158.642Z" fill="#282A36" fill-opacity="0.82"/>
<path d="M59.8127 158.642C73.7053 158.642 84.9676 147.388 84.9676 133.505C84.9676 119.622 73.7053 108.368 59.8127 108.368C45.9201 108.368 34.6578 119.622 34.6578 133.505C34.6578 147.388 45.9201 158.642 59.8127 158.642Z" fill="#282A36" fill-opacity="0.82"/>
</svg>
